PathFileType  4	(X/Y/Z) /Users/kristensteudel/Documents/NMBL_Research/BertecForceProcessing/anc_files/
DataRate	CameraRate	NumFrames	NumMarkers	Units	OrigDataRate	OrigDataStartFrame	OrigNumFrames
  200.0		  200.0		    8		     46		 mm	  200.0	      634	    724
Frame#	Time	r_knee			r_shank_antsup			r_ankle			r_calc			r_5meta			r_toe			L_knee			L_shank_antsup			L_ankle			L_calc			L_5meta			L_toe			r_sh2			r_sh3			r_sh4			L_sh2			L_sh3			r_thigh1			r_thigh2			r_thigh3			r_thigh4			r_thigh5			L_thigh1			L_thigh2			L_thigh3			L_thigh4			r.ASIS			r.PSIS			L.ASIS			L.PSIS			C7			R_Shoulder			L_Shoulder			Sternum			R_humerus			R_elbow_med			R_elbow_lat			R_forearm			R_wrist_radius			R_wrist_ulna			L_humerus			L_elbow_med			L_elbow_lat			L_forearm			L_wrist_radius			L_wrist_ulna			
		X1	Y1	Z1	X2	Y2	Z2	X3	Y3	Z3	X4	Y4	Z4	X5	Y5	Z5	X6	Y6	Z6	X7	Y7	Z7	X8	Y8	Z8	X9	Y9	Z9	X10	Y10	Z10	X11	Y11	Z11	X12	Y12	Z12	X13	Y13	Z13	X14	Y14	Z14	X15	Y15	Z15	X16	Y16	Z16	X17	Y17	Z17	X18	Y18	Z18	X19	Y19	Z19	X20	Y20	Z20	X21	Y21	Z21	X22	Y22	Z22	X23	Y23	Z23	X24	Y24	Z24	X25	Y25	Z25	X26	Y26	Z26	X27	Y27	Z27	X28	Y28	Z28	X29	Y29	Z29	X30	Y30	Z30	X31	Y31	Z31	X32	Y32	Z32	X33	Y33	Z33	X34	Y34	Z34	X35	Y35	Z35	X36	Y36	Z36	X37	Y37	Z37	X38	Y38	Z38	X39	Y39	Z39	X40	Y40	Z40	X41	Y41	Z41	X42	Y42	Z42	X43	Y43	Z43	X44	Y44	Z44	X45	Y45	Z45	X46	Y46	Z46	

634	3.16500	723.540	491.478	-164.109	680.740	373.942	-168.758	442.392	153.505	-223.065	361.584	163.583	-286.949	504.189	37.164	-194.573	553.428	47.361	-256.034	1061.676	620.553	-474.474	987.413	531.954	-469.246	691.742	426.819	-423.526	634.695	458.166	-371.859	725.456	268.179	-447.964	756.761	247.832	-378.553	601.381	286.259	-185.737	625.474	416.939	-143.625	541.941	342.762	-172.599	948.434	612.332	-480.204	843.463	551.192	-463.384	845.082	694.438	-129.136	815.470	585.624	-154.388	764.934	562.900	-144.916	734.075	712.224	-109.599	712.536	600.803	-142.319	1001.326	841.868	-466.988	1087.090	731.034	-455.746	915.611	775.675	-516.477	1000.628	668.220	-485.192	874.335	978.785	-166.614	667.348	1052.198	-236.213	857.696	994.977	-436.361	662.399	1051.388	-341.944	775.700	1534.834	-267.769	848.811	1494.199	-87.873	789.777	1525.783	-458.641	930.372	1427.538	-301.310	806.762	1261.805	-14.730	692.437	1148.010	-52.148	711.168	1175.969	35.026	880.054	1134.895	-22.681	975.943	1107.899	-71.560	965.752	1063.855	-44.820	656.907	1333.709	-552.395	531.236	1255.734	-492.459	557.764	1301.025	-575.123	696.216	1205.743	-571.505	795.764	1170.155	-503.264	767.891	1133.089	-561.167
635	3.17000	707.563	497.627	-162.631	662.664	381.205	-165.455	422.253	160.660	-220.342	343.498	174.116	-284.833	477.977	38.312	-194.449	526.618	47.462	-255.131	1066.700	628.120	-473.376	997.061	534.018	-468.606	708.936	409.129	-422.690	650.422	436.426	-370.456	753.958	253.725	-447.285	786.517	235.643	-378.090	582.060	294.105	-182.520	607.501	425.115	-142.093	523.242	351.318	-170.975	952.371	611.811	-478.859	851.962	543.464	-461.908	837.976	696.294	-130.335	804.088	588.573	-154.196	753.235	566.732	-145.018	728.072	717.842	-108.615	701.936	607.360	-140.496	1003.360	849.949	-466.764	1090.119	740.163	-454.347	918.825	781.990	-515.936	1003.962	674.850	-484.280	876.589	981.071	-167.356	670.108	1055.407	-235.781	859.083	1001.203	-436.995	664.172	1055.087	-340.148	774.858	1539.785	-268.289	850.049	1499.149	-88.817	785.961	1530.578	-458.262	929.438	1432.721	-303.713	810.819	1267.192	-14.985	696.409	1153.168	-51.389	715.940	1180.847	35.814	884.515	1143.472	-24.713	980.082	1118.569	-75.190	971.103	1074.397	-48.347	652.049	1339.407	-551.183	526.872	1261.771	-489.681	552.635	1306.920	-572.736	691.028	1212.692	-570.118	791.565	1177.654	-502.944	763.042	1140.231	-560.398
636	3.17500	691.820	504.758	-161.293	644.757	389.229	-162.553	403.457	168.274	-217.233	327.013	184.995	-282.690	452.455	39.791	-193.576	499.997	47.214	-255.221	1070.942	634.809	-472.511	1005.929	535.472	-468.007	726.964	391.759	-422.101	666.549	415.422	-370.118	782.819	239.962	-446.486	816.499	223.982	-377.024	563.449	302.651	-179.147	589.909	434.095	-140.790	505.206	360.852	-169.326	956.442	610.357	-478.117	860.368	535.347	-460.624	830.960	698.864	-131.322	793.167	592.164	-154.693	742.358	571.219	-145.289	722.354	723.719	-107.626	692.078	614.085	-138.733	1005.491	857.582	-466.554	1093.047	748.373	-452.852	921.671	788.165	-515.771	1008.592	682.566	-483.784	878.936	983.479	-167.810	672.584	1058.341	-233.951	860.532	1007.442	-437.622	665.811	1058.905	-338.763	774.193	1543.954	-267.870	851.174	1504.234	-89.601	782.340	1535.306	-457.899	928.500	1437.845	-306.081	814.627	1272.654	-15.401	699.118	1159.226	-50.310	720.587	1186.158	36.907	888.554	1152.330	-26.699	983.619	1129.593	-78.850	976.166	1084.991	-51.797	647.341	1345.172	-550.021	522.440	1267.777	-486.874	547.385	1312.850	-570.592	686.133	1219.672	-568.720	787.415	1185.351	-502.653	758.550	1147.604	-559.571
637	3.18000	676.785	512.829	-159.701	627.335	397.988	-159.504	386.467	175.172	-213.777	312.023	196.306	-280.541	427.037	41.421	-192.775	474.257	47.688	-254.421	1074.399	640.616	-471.941	1014.901	536.552	-467.613	745.504	374.625	-421.585	684.157	394.394	-369.353	811.742	227.051	-445.606	846.939	213.982	-377.384	545.756	311.988	-175.410	572.707	443.895	-139.254	487.920	370.863	-167.979	960.188	607.770	-477.677	870.067	526.330	-459.672	824.423	701.740	-132.292	782.780	596.142	-155.864	731.998	576.136	-145.770	716.930	729.662	-106.545	682.591	621.080	-137.055	1006.430	863.537	-466.254	1095.851	755.588	-451.549	924.624	794.247	-515.543	1011.867	688.969	-483.395	881.369	986.742	-168.834	675.249	1061.672	-232.744	862.071	1013.568	-438.190	667.536	1062.416	-337.380	773.943	1548.085	-268.263	852.663	1509.197	-90.434	778.760	1540.088	-457.441	927.496	1443.001	-308.304	818.367	1278.289	-15.781	703.320	1164.561	-47.362	725.076	1191.778	38.101	892.173	1161.259	-28.659	986.821	1140.517	-82.361	980.622	1095.568	-55.314	643.020	1350.959	-548.758	518.242	1273.806	-484.064	542.588	1318.853	-568.125	681.357	1226.679	-567.245	783.618	1193.338	-502.380	754.238	1155.079	-558.802
638	3.18500	662.188	521.239	-157.904	610.714	407.677	-156.390	371.277	181.541	-209.689	299.159	207.375	-277.354	402.027	43.304	-191.886	449.141	48.460	-253.435	1077.129	645.621	-471.633	1023.546	537.047	-467.533	764.832	358.033	-421.096	702.922	373.423	-367.781	839.274	213.894	-444.426	876.972	204.340	-376.278	528.902	321.738	-171.590	556.060	454.124	-137.608	471.370	381.148	-166.820	965.541	601.717	-472.764	879.513	517.706	-459.345	817.889	704.881	-133.252	772.842	600.469	-157.052	722.275	581.882	-145.847	711.982	735.912	-105.164	673.707	628.231	-135.571	1008.851	869.842	-465.963	1098.263	762.017	-449.914	927.276	799.970	-515.296	1015.028	695.248	-483.248	883.894	990.485	-170.312	677.845	1065.187	-231.318	863.049	1019.171	-438.380	669.416	1066.270	-336.122	773.313	1552.524	-268.782	853.700	1514.389	-90.912	775.343	1544.661	-456.993	926.430	1448.109	-310.437	822.096	1284.012	-15.983	706.364	1170.284	-45.741	729.481	1197.457	39.479	895.542	1170.447	-30.446	989.510	1151.547	-85.880	984.394	1106.427	-59.763	638.599	1356.710	-547.575	514.176	1279.955	-481.315	537.693	1324.651	-565.717	676.762	1233.751	-565.787	779.650	1201.040	-501.972	750.082	1162.664	-558.059
639	3.19000	648.302	530.129	-156.427	594.796	418.102	-153.404	357.377	187.210	-205.236	287.918	218.747	-272.977	377.650	45.797	-190.919	424.519	49.759	-252.726	1079.278	649.461	-471.159	1031.603	536.970	-467.708	784.908	342.161	-421.051	722.513	353.217	-366.668	868.256	202.214	-443.414	907.272	196.110	-375.504	513.185	331.825	-167.695	539.338	465.375	-135.662	455.808	391.507	-166.230	967.159	601.409	-474.401	889.501	508.649	-459.129	811.387	707.842	-134.366	762.893	605.346	-157.271	712.602	587.537	-145.572	707.040	742.001	-104.039	665.056	635.832	-134.036	1010.917	875.390	-465.745	1100.133	768.100	-449.453	929.809	805.313	-515.098	1017.116	700.514	-482.949	886.152	994.140	-171.466	680.475	1068.751	-230.366	865.375	1024.262	-439.113	671.871	1069.989	-334.865	773.086	1556.603	-269.300	854.968	1519.139	-91.845	772.127	1548.919	-456.290	925.389	1453.196	-312.422	825.555	1289.716	-16.317	709.187	1175.902	-44.049	734.556	1202.745	40.044	898.349	1179.555	-32.145	991.792	1162.505	-89.281	988.021	1117.078	-63.542	634.431	1362.319	-546.316	510.259	1285.979	-478.446	532.920	1330.522	-563.434	672.198	1240.776	-564.351	776.286	1208.625	-501.317	746.152	1170.326	-557.272
640	3.19500	635.615	539.297	-155.205	579.773	429.157	-150.911	344.618	193.316	-200.547	278.192	230.763	-268.064	354.009	49.556	-190.102	401.708	52.167	-251.336	1080.707	652.579	-471.281	1039.949	536.547	-468.186	805.294	325.409	-420.335	743.100	333.562	-365.621	897.248	191.471	-442.478	937.347	188.478	-375.313	498.808	342.125	-163.765	524.088	476.523	-135.054	441.330	401.597	-165.710	972.113	596.191	-479.045	899.760	499.558	-459.165	804.932	711.240	-135.208	753.383	609.671	-159.606	702.683	596.502	-139.446	702.106	748.339	-102.949	656.587	643.595	-133.326	1013.415	880.087	-465.554	1101.845	772.642	-449.006	931.846	810.189	-514.718	1019.185	705.240	-482.504	888.238	997.422	-172.351	682.960	1072.434	-229.418	867.302	1028.439	-439.347	674.248	1074.056	-334.398	772.864	1560.433	-269.759	856.405	1523.871	-92.988	769.171	1552.975	-455.775	924.325	1458.126	-314.296	828.864	1295.494	-16.538	711.583	1181.693	-42.353	738.645	1208.479	41.525	900.877	1188.586	-33.692	993.630	1173.299	-92.477	991.059	1127.849	-67.117	630.208	1367.773	-545.138	506.388	1291.950	-475.753	528.386	1336.352	-561.162	667.847	1247.742	-562.974	772.586	1215.040	-500.104	742.608	1177.882	-556.678
641	3.20000	623.653	548.325	-154.092	565.911	440.495	-148.754	333.006	200.267	-195.972	269.252	243.468	-263.558	331.458	55.321	-189.171	380.111	55.825	-250.030	1082.076	654.860	-471.620	1047.421	535.632	-468.832	826.640	309.574	-419.730	764.456	314.699	-364.918	926.477	181.470	-441.864	967.326	181.859	-374.838	485.573	352.405	-160.483	509.738	487.641	-134.467	428.009	411.370	-165.100	975.424	591.173	-479.941	909.851	490.565	-459.785	798.740	714.600	-136.122	744.118	614.708	-159.847	693.368	602.744	-139.582	697.502	754.583	-101.529	648.704	651.505	-132.764	1015.658	884.071	-465.295	1103.441	775.870	-448.881	933.613	814.242	-514.327	1020.003	708.860	-482.012	890.099	1000.485	-172.900	685.442	1076.489	-228.406	868.515	1031.926	-439.590	676.948	1077.806	-333.392	772.577	1563.857	-270.440	857.933	1528.450	-94.593	766.633	1556.664	-454.878	923.339	1462.886	-315.980	832.093	1301.145	-16.813	713.920	1187.301	-40.457	742.293	1214.196	43.092	903.044	1197.609	-35.173	995.231	1184.073	-95.630	993.798	1138.344	-70.368	626.280	1373.090	-543.963	502.823	1297.425	-472.985	524.034	1342.075	-558.994	663.792	1254.641	-561.669	770.431	1221.498	-499.041	739.577	1185.603	-556.317
